# xmcd
#
# Track frame offsets:
#	150
#	37520
#	84030
#	114946
#	126355
#	158361
#	196297
#
# Disc length: 3143 seconds
#
# Revision: 1
# Processed by: cddbd v1.5.2PL0 Copyright (c) Steve Scherf et al.
# Submitted via: audiograbber 1.83.01
#
DISCID=3e0c4507
DTITLE=Denny Newman - Liva La Regularis
DYEAR=2010
DGENRE=Blues
TTITLE0=This World Keep Turning
TTITLE1=Burying Ground
TTITLE2=I'll Get Over You (when you get over getting over me)
TTITLE3=Just Like I'm Used To
TTITLE4=Livin' For The Past
TTITLE5=The Case Is Closed
TTITLE6=Frenchman
EXTD=
EXTT0=
EXTT1=
EXTT2=
EXTT3=
EXTT4=
EXTT5=
EXTT6=
PLAYORDER=
